<svg width="30" height="30" viewBox="0 0 30 30" fill="none" xmlns="http://www.w3.org/2000/svg">
<path fill-rule="evenodd" clip-rule="evenodd" d="M15 1.25C14.6417 1.24995 14.2875 1.32694 13.9615 1.47573C13.6356 1.62453 13.3454 1.84167 13.1107 2.11242C12.8759 2.38318 12.7022 2.70123 12.6011 3.04502C12.5001 3.38881 12.4741 3.7503 12.525 4.105C10.713 4.63937 9.12255 5.74585 7.99149 7.25903C6.86044 8.77221 6.2495 10.6108 6.25 12.5V22.5H5C4.66848 22.5 4.35054 22.6317 4.11612 22.8661C3.8817 23.1005 3.75 23.4185 3.75 23.75C3.75 24.0815 3.8817 24.3995 4.11612 24.6339C4.35054 24.8683 4.66848 25 5 25H25C25.3315 25 25.6495 24.8683 25.8839 24.6339C26.1183 24.3995 26.25 24.0815 26.25 23.75C26.25 23.4185 26.1183 23.1005 25.8839 22.8661C25.6495 22.6317 25.3315 22.5 25 22.5H23.75V12.5C23.7505 10.6108 23.1396 8.77221 22.0085 7.25903C20.8775 5.74585 19.287 4.63937 17.475 4.105C17.4917 3.98833 17.5 3.87 17.5 3.75C17.5 3.08696 17.2366 2.45107 16.7678 1.98223C16.2989 1.51339 15.663 1.25 15 1.25ZM17.5 27.5C17.5 27.8315 17.3683 28.1495 17.1339 28.3839C16.8995 28.6183 16.5815 28.75 16.25 28.75H13.75C13.4185 28.75 13.1005 28.6183 12.8661 28.3839C12.6317 28.1495 12.5 27.8315 12.5 27.5C12.5 27.1685 12.6317 26.8505 12.8661 26.6161C13.1005 26.3817 13.4185 26.25 13.75 26.25H16.25C16.5815 26.25 16.8995 26.3817 17.1339 26.6161C17.3683 26.8505 17.5 27.1685 17.5 27.5Z" fill="#FFFEFE"/>
</svg>
