<svg width="35" height="35" viewBox="0 0 35 35" fill="none" xmlns="http://www.w3.org/2000/svg">
<path d="M5.83301 27.7087V24.792H8.74967V14.5837C8.74967 12.5663 9.35731 10.774 10.5726 9.20679C11.7879 7.63956 13.3677 6.61241 15.3122 6.12533V5.1045C15.3122 4.49686 15.5251 3.98061 15.9509 3.55575C16.3768 3.13088 16.893 2.91797 17.4997 2.917C18.1063 2.91602 18.6231 3.12894 19.0499 3.55575C19.4767 3.98255 19.6891 4.4988 19.6872 5.1045V6.12533C21.6316 6.61144 23.2115 7.63859 24.4268 9.20679C25.642 10.775 26.2497 12.5673 26.2497 14.5837V24.792H29.1663V27.7087H5.83301ZM17.4997 32.0837C16.6976 32.0837 16.0112 31.7983 15.4405 31.2276C14.8698 30.6569 14.584 29.97 14.583 29.167H20.4163C20.4163 29.9691 20.131 30.656 19.5603 31.2276C18.9896 31.7993 18.3027 32.0846 17.4997 32.0837ZM11.6663 24.792H23.333V14.5837C23.333 12.9795 22.7618 11.6062 21.6195 10.4639C20.4771 9.32151 19.1038 8.75033 17.4997 8.75033C15.8955 8.75033 14.5222 9.32151 13.3799 10.4639C12.2375 11.6062 11.6663 12.9795 11.6663 14.5837V24.792Z" fill="white"/>
</svg>
