<svg width="32" height="32" viewBox="0 0 32 32" fill="none" xmlns="http://www.w3.org/2000/svg">
<path d="M5.33366 29.3337C4.60033 29.3337 3.97277 29.0728 3.45099 28.551C2.92921 28.0292 2.66788 27.4012 2.66699 26.667V13.3337C2.66699 12.6003 2.92833 11.9728 3.45099 11.451C3.97366 10.9292 4.60121 10.6679 5.33366 10.667H26.667C27.4003 10.667 28.0283 10.9283 28.551 11.451C29.0737 11.9737 29.3345 12.6012 29.3337 13.3337V26.667C29.3337 27.4003 29.0728 28.0283 28.551 28.551C28.0292 29.0737 27.4012 29.3345 26.667 29.3337H5.33366ZM14.367 24.6337L20.5003 20.567C20.7003 20.4337 20.8003 20.2448 20.8003 20.0003C20.8003 19.7559 20.7003 19.567 20.5003 19.4337L14.367 15.367C14.1448 15.2114 13.9168 15.1945 13.683 15.3163C13.4492 15.4381 13.3328 15.6328 13.3337 15.9003V24.1003C13.3337 24.367 13.4505 24.5617 13.6843 24.6843C13.9181 24.807 14.1457 24.7901 14.367 24.6337ZM6.66699 9.33366C6.28921 9.33366 5.97277 9.20566 5.71766 8.94966C5.46255 8.69366 5.33455 8.37721 5.33366 8.00033C5.33277 7.62344 5.46077 7.30699 5.71766 7.05099C5.97455 6.79499 6.29099 6.66699 6.66699 6.66699H25.3337C25.7114 6.66699 26.0283 6.79499 26.2843 7.05099C26.5403 7.30699 26.6679 7.62344 26.667 8.00033C26.6661 8.37721 26.5381 8.6941 26.283 8.95099C26.0279 9.20788 25.7114 9.33544 25.3337 9.33366H6.66699ZM10.667 5.33366C10.2892 5.33366 9.97277 5.20566 9.71766 4.94966C9.46255 4.69366 9.33455 4.37721 9.33366 4.00033C9.33277 3.62344 9.46077 3.30699 9.71766 3.05099C9.97455 2.79499 10.291 2.66699 10.667 2.66699H21.3337C21.7114 2.66699 22.0283 2.79499 22.2843 3.05099C22.5403 3.30699 22.6679 3.62344 22.667 4.00033C22.6661 4.37721 22.5381 4.6941 22.283 4.95099C22.0279 5.20788 21.7114 5.33544 21.3337 5.33366H10.667Z" fill="white"/>
</svg>
