<svg width="33" height="33" viewBox="0 0 33 33" fill="none" xmlns="http://www.w3.org/2000/svg">
<path d="M5.5 30.25C4.74375 30.25 4.09658 29.981 3.5585 29.4429C3.02042 28.9048 2.75092 28.2572 2.75 27.5V13.75C2.75 12.9937 3.0195 12.3466 3.5585 11.8085C4.0975 11.2704 4.74467 11.0009 5.5 11H27.5C28.2563 11 28.9039 11.2695 29.4429 11.8085C29.9819 12.3475 30.2509 12.9947 30.25 13.75V27.5C30.25 28.2563 29.981 28.9039 29.4429 29.4429C28.9048 29.9819 28.2572 30.2509 27.5 30.25H5.5ZM5.5 27.5H27.5V13.75H5.5V27.5ZM13.75 26.125L22 20.625L13.75 15.125V26.125ZM5.5 9.625V6.875H27.5V9.625H5.5ZM9.625 5.5V2.75H23.375V5.5H9.625Z" fill="white"/>
</svg>
