<svg width="29" height="23" viewBox="0 0 29 23" fill="none" xmlns="http://www.w3.org/2000/svg">
<path d="M0 4.08065C0 2.99839 0.430883 1.96046 1.19786 1.19519C1.96483 0.429924 3.00508 0 4.08974 0H24.9103C25.9949 0 27.0352 0.429924 27.8021 1.19519C28.5691 1.96046 29 2.99839 29 4.08065V8.53226C29 8.82742 28.8825 9.11049 28.6733 9.3192C28.4641 9.52791 28.1804 9.64516 27.8846 9.64516C27.3916 9.64516 26.9187 9.84058 26.5701 10.1884C26.2215 10.5363 26.0256 11.0081 26.0256 11.5C26.0256 11.9919 26.2215 12.4637 26.5701 12.8116C26.9187 13.1594 27.3916 13.3548 27.8846 13.3548C28.1804 13.3548 28.4641 13.4721 28.6733 13.6808C28.8825 13.8895 29 14.1726 29 14.4677V18.9194C29 20.0016 28.5691 21.0395 27.8021 21.8048C27.0352 22.5701 25.9949 23 24.9103 23H4.08974C3.00508 23 1.96483 22.5701 1.19786 21.8048C0.430883 21.0395 0 20.0016 0 18.9194V14.4677C0 14.1726 0.117513 13.8895 0.326688 13.6808C0.535864 13.4721 0.819566 13.3548 1.11538 13.3548C1.60842 13.3548 2.08125 13.1594 2.42988 12.8116C2.7785 12.4637 2.97436 11.9919 2.97436 11.5C2.97436 11.0081 2.7785 10.5363 2.42988 10.1884C2.08125 9.84058 1.60842 9.64516 1.11538 9.64516C0.819566 9.64516 0.535864 9.52791 0.326688 9.3192C0.117513 9.11049 0 8.82742 0 8.53226V4.08065ZM15.6154 5.56452C15.6154 5.26936 15.4979 4.98628 15.2887 4.77757C15.0795 4.56886 14.7958 4.45161 14.5 4.45161C14.2042 4.45161 13.9205 4.56886 13.7113 4.77757C13.5021 4.98628 13.3846 5.26936 13.3846 5.56452V6.30645C13.3846 6.60161 13.5021 6.88468 13.7113 7.09339C13.9205 7.3021 14.2042 7.41935 14.5 7.41935C14.7958 7.41935 15.0795 7.3021 15.2887 7.09339C15.4979 6.88468 15.6154 6.60161 15.6154 6.30645V5.56452ZM15.6154 11.129C15.6154 10.8339 15.4979 10.5508 15.2887 10.3421C15.0795 10.1334 14.7958 10.0161 14.5 10.0161C14.2042 10.0161 13.9205 10.1334 13.7113 10.3421C13.5021 10.5508 13.3846 10.8339 13.3846 11.129V11.871C13.3846 12.1661 13.5021 12.4492 13.7113 12.6579C13.9205 12.8666 14.2042 12.9839 14.5 12.9839C14.7958 12.9839 15.0795 12.8666 15.2887 12.6579C15.4979 12.4492 15.6154 12.1661 15.6154 11.871V11.129ZM15.6154 16.6935C15.6154 16.3984 15.4979 16.1153 15.2887 15.9066C15.0795 15.6979 14.7958 15.5806 14.5 15.5806C14.2042 15.5806 13.9205 15.6979 13.7113 15.9066C13.5021 16.1153 13.3846 16.3984 13.3846 16.6935V17.4355C13.3846 17.7306 13.5021 18.0137 13.7113 18.2224C13.9205 18.4311 14.2042 18.5484 14.5 18.5484C14.7958 18.5484 15.0795 18.4311 15.2887 18.2224C15.4979 18.0137 15.6154 17.7306 15.6154 17.4355V16.6935Z" fill="#FCFCFC"/>
</svg>
