<svg width="32" height="32" viewBox="0 0 32 32" fill="none" xmlns="http://www.w3.org/2000/svg">
<path d="M16 15.667V16.3337M16 10.667V11.3337M16 20.667V21.3337M25.3333 25.3337C26.0406 25.3337 26.7189 25.0527 27.219 24.5526C27.719 24.0525 28 23.3742 28 22.667V18.667C27.2928 18.667 26.6145 18.386 26.1144 17.8859C25.6143 17.3858 25.3333 16.7076 25.3333 16.0003C25.3333 15.2931 25.6143 14.6148 26.1144 14.1147C26.6145 13.6146 27.2928 13.3337 28 13.3337V9.33366C28 8.62641 27.719 7.94814 27.219 7.44804C26.7189 6.94794 26.0406 6.66699 25.3333 6.66699H6.66667C5.95942 6.66699 5.28115 6.94794 4.78105 7.44804C4.28095 7.94814 4 8.62641 4 9.33366V13.3337C4.70724 13.3337 5.38552 13.6146 5.88562 14.1147C6.38572 14.6148 6.66667 15.2931 6.66667 16.0003C6.66667 16.7076 6.38572 17.3858 5.88562 17.8859C5.38552 18.386 4.70724 18.667 4 18.667V22.667C4 23.3742 4.28095 24.0525 4.78105 24.5526C5.28115 25.0527 5.95942 25.3337 6.66667 25.3337H25.3333Z" stroke="white" stroke-width="1.5" stroke-linecap="round" stroke-linejoin="round"/>
</svg>
