<svg width="54" height="54" viewBox="0 0 54 54" fill="none" xmlns="http://www.w3.org/2000/svg">
<path d="M40.5 3.375H33.75C33.75 2.92745 33.5722 2.49822 33.2557 2.18176C32.9393 1.86529 32.5101 1.6875 32.0625 1.6875H21.9375C21.4899 1.6875 21.0607 1.86529 20.7443 2.18176C20.4278 2.49822 20.25 2.92745 20.25 3.375H13.5C11.8125 3.375 10.125 5.0625 10.125 6.75V37.125C10.125 39.6478 27 45.5625 27 45.5625C27 45.5625 43.875 39.5782 43.875 37.125V6.75C43.875 5.0625 42.1875 3.375 40.5 3.375ZM27 37.125C25.9987 37.125 25.0199 36.8281 24.1874 36.2718C23.3549 35.7155 22.706 34.9249 22.3229 33.9998C21.9397 33.0748 21.8394 32.0569 22.0348 31.0749C22.2301 30.0928 22.7123 29.1908 23.4203 28.4828C24.1283 27.7748 25.0303 27.2926 26.0124 27.0973C26.9944 26.9019 28.0123 27.0022 28.9373 27.3854C29.8624 27.7685 30.653 28.4174 31.2093 29.2499C31.7656 30.0825 32.0625 31.0612 32.0625 32.0625C32.0625 33.4052 31.5291 34.6928 30.5797 35.6422C29.6303 36.5916 28.3427 37.125 27 37.125ZM38.8125 21.0938C38.8125 21.3175 38.7236 21.5321 38.5654 21.6904C38.4071 21.8486 38.1925 21.9375 37.9688 21.9375H16.0312C15.8075 21.9375 15.5929 21.8486 15.4346 21.6904C15.2764 21.5321 15.1875 21.3175 15.1875 21.0938V12.6562C15.1875 12.4325 15.2764 12.2179 15.4346 12.0596C15.5929 11.9014 15.8075 11.8125 16.0312 11.8125H37.9688C38.1925 11.8125 38.4071 11.9014 38.5654 12.0596C38.7236 12.2179 38.8125 12.4325 38.8125 12.6562V21.0938Z" fill="white"/>
<path d="M33.1171 45.5625L34.7329 47.25H19.2564L20.8828 45.5625L17.5078 44.1914L9.42676 52.3125H14.1939L15.8814 50.625H38.1079L39.7954 52.3125H44.5732L36.5196 44.1123L33.1171 45.5625Z" fill="white"/>
</svg>
